<?xml version="1.0" standalone="no"?>
<!DOCTYPE svg PUBLIC "-//W3C//DTD SVG 20010904//EN"
 "http://www.w3.org/TR/2001/REC-SVG-20010904/DTD/svg10.dtd">
<svg version="1.0" xmlns="http://www.w3.org/2000/svg"
 width="474.000000pt" height="273.000000pt" viewBox="0 0 474.000000 273.000000"
 preserveAspectRatio="xMidYMid meet">

<g transform="translate(0.000000,273.000000) scale(0.100000,-0.100000)"
fill="#000000" stroke="none">
<path d="M2195 2515 c-38 -7 -56 -13 -40 -13 17 0 64 5 105 12 41 8 59 13 40
13 -19 0 -66 -5 -105 -12z"/>
<path d="M2408 2523 c12 -2 30 -2 40 0 9 3 -1 5 -23 4 -22 0 -30 -2 -17 -4z"/>
<path d="M2528 2513 c18 -2 30 -8 27 -14 -3 -5 1 -6 9 -3 8 3 30 1 49 -4 20
-6 38 -7 42 -4 7 8 -100 31 -135 30 -17 -1 -15 -2 8 -5z"/>
<path d="M2058 2483 c7 -3 16 -2 19 1 4 3 -2 6 -13 5 -11 0 -14 -3 -6 -6z"/>
<path d="M2680 2480 c0 -5 5 -10 11 -10 5 0 7 5 4 10 -3 6 -8 10 -11 10 -2 0
-4 -4 -4 -10z"/>
<path d="M2015 2470 c-3 -5 -2 -10 4 -10 5 0 13 5 16 10 3 6 2 10 -4 10 -5 0
-13 -4 -16 -10z"/>
<path d="M2715 2471 c-2 -5 8 -11 23 -14 35 -7 38 -3 7 11 -13 6 -27 7 -30 3z"/>
<path d="M1957 2449 c7 -7 15 -10 18 -7 3 3 -2 9 -12 12 -14 6 -15 5 -6 -5z"/>
<path d="M2788 2442 c8 -5 13 -13 12 -18 -1 -5 4 -10 12 -12 9 -2 8 0 -2 8
-12 9 -10 11 12 6 14 -3 34 -8 45 -11 10 -3 5 1 -12 9 -40 18 -84 30 -67 18z"/>
<path d="M1885 2425 c-25 -12 -26 -14 -5 -9 14 4 29 10 35 15 12 12 5 11 -30
-6z"/>
<path d="M2048 2433 c7 -3 16 -2 19 1 4 3 -2 6 -13 5 -11 0 -14 -3 -6 -6z"/>
<path d="M2470 2390 c8 -5 20 -10 25 -10 6 0 3 5 -5 10 -8 5 -19 10 -25 10 -5
0 -3 -5 5 -10z"/>
<path d="M1800 2380 c-18 -12 -2 -12 25 0 13 6 15 9 5 9 -8 0 -22 -4 -30 -9z"/>
<path d="M2260 2369 c-21 -3 -2 -6 50 -7 47 0 91 2 97 6 13 8 -98 9 -147 1z"/>
<path d="M2568 2373 c7 -3 16 -2 19 1 4 3 -2 6 -13 5 -11 0 -14 -3 -6 -6z"/>
<path d="M2975 2356 c17 -14 34 -26 39 -26 11 0 11 0 -34 29 l-35 23 30 -26z"/>
<path d="M2458 2363 c7 -3 16 -2 19 1 4 3 -2 6 -13 5 -11 0 -14 -3 -6 -6z"/>
<path d="M2530 2354 c25 -7 54 -13 65 -13 11 0 -2 7 -30 14 -65 18 -93 18 -35
-1z"/>
<path d="M1710 2327 c-14 -12 -37 -30 -50 -40 -18 -12 -14 -11 17 4 23 11 44
27 47 36 4 9 13 13 22 9 8 -3 12 -2 9 4 -9 14 -17 12 -45 -13z"/>
<path d="M2118 2343 c7 -3 16 -2 19 1 4 3 -2 6 -13 5 -11 0 -14 -3 -6 -6z"/>
<path d="M2068 2323 c7 -3 16 -2 19 1 4 3 -2 6 -13 5 -11 0 -14 -3 -6 -6z"/>
<path d="M2700 2310 c20 -13 33 -13 25 0 -3 6 -14 10 -23 10 -15 0 -15 -2 -2
-10z"/>
<path d="M3055 2300 c10 -11 20 -20 23 -20 3 0 -3 9 -13 20 -10 11 -20 20 -23
20 -3 0 3 -9 13 -20z"/>
<path d="M1980 2295 c-14 -8 -20 -14 -15 -14 6 0 21 6 35 14 14 8 21 14 15 14
-5 0 -21 -6 -35 -14z"/>
<path d="M2756 2301 c-19 -7 -19 -8 0 -13 13 -3 21 0 21 8 0 8 -1 14 -1 13 -1
0 -10 -4 -20 -8z"/>
<path d="M2814 2265 c21 -16 32 -13 21 4 -3 6 -14 11 -23 11 -15 -1 -15 -2 2
-15z"/>
<path d="M1845 2225 c-22 -13 -49 -22 -60 -20 -11 3 -14 2 -7 -1 19 -9 14 -27
-5 -20 -10 4 -14 4 -10 0 4 -4 1 -14 -6 -23 -6 -9 5 -3 26 12 21 16 57 39 80
53 23 13 38 24 32 24 -5 0 -28 -11 -50 -25z"/>
<path d="M2875 2241 c-3 -5 -2 -12 3 -15 5 -3 9 1 9 9 0 17 -3 19 -12 6z"/>
<path d="M1564 2209 c-18 -19 -22 -28 -11 -24 9 4 17 12 17 17 0 6 6 8 13 5 8
-3 14 3 14 14 2 25 2 24 -33 -12z"/>
<path d="M1760 2229 c0 -5 5 -7 10 -4 6 3 10 8 10 11 0 2 -4 4 -10 4 -5 0 -10
-5 -10 -11z"/>
<path d="M2904 2223 c4 -23 18 -26 41 -7 11 8 14 13 8 9 -7 -3 -21 -1 -32 4
-16 9 -19 8 -17 -6z"/>
<path d="M3136 2221 c-3 -5 2 -8 12 -7 11 1 16 -6 15 -18 -1 -13 2 -15 10 -7
7 7 6 15 -3 26 -14 17 -26 19 -34 6z"/>
<path d="M2945 2191 c-3 -5 -2 -12 3 -15 5 -3 9 1 9 9 0 17 -3 19 -12 6z"/>
<path d="M3185 2180 c-5 -8 -4 -11 2 -7 6 4 18 -5 28 -19 9 -14 19 -23 22 -21
3 3 -6 18 -20 32 -18 20 -27 24 -32 15z"/>
<path d="M2270 2160 c-13 -9 -13 -10 0 -10 8 0 22 5 30 10 13 9 13 10 0 10 -8
0 -22 -5 -30 -10z"/>
<path d="M2348 2163 c17 -2 47 -2 65 0 17 2 3 4 -33 4 -36 0 -50 -2 -32 -4z"/>
<path d="M2980 2168 c0 -3 20 -23 45 -46 28 -25 45 -35 45 -26 0 8 -8 18 -17
21 -10 4 -20 9 -23 12 -12 14 -50 44 -50 39z"/>
<path d="M2495 2150 c3 -5 16 -10 28 -9 21 0 21 1 2 9 -28 12 -37 12 -30 0z"/>
<path d="M1493 2138 c-21 -27 -23 -36 -8 -34 8 1 18 6 22 11 4 4 2 5 -6 0 -9
-5 -12 -3 -9 6 3 8 11 13 17 12 6 -2 11 2 11 7 0 14 -16 12 -27 -2z"/>
<path d="M2170 2141 c-8 -6 -17 -8 -21 -5 -4 2 -21 -1 -39 -7 -23 -9 -28 -14
-18 -20 19 -13 36 -11 18 2 -12 9 -11 10 8 6 14 -3 20 -1 15 6 -4 6 -1 8 8 5
8 -3 28 1 44 8 17 7 23 13 15 13 -8 1 -22 -3 -30 -8z"/>
<path d="M2570 2130 c8 -5 20 -10 25 -10 6 0 3 5 -5 10 -8 5 -19 10 -25 10 -5
0 -3 -5 5 -10z"/>
<path d="M1643 2063 c-66 -66 -113 -123 -113 -138 0 -4 14 10 30 31 17 22 61
69 97 107 37 37 64 67 61 67 -4 0 -37 -30 -75 -67z"/>
<path d="M2615 2120 c-3 -6 1 -7 9 -4 18 7 21 14 7 14 -6 0 -13 -4 -16 -10z"/>
<path d="M2647 2113 c-3 -5 6 -9 20 -10 19 -1 22 1 12 8 -17 11 -26 11 -32 2z"/>
<path d="M3246 2103 c-6 -14 -5 -15 5 -6 7 7 10 15 7 18 -3 3 -9 -2 -12 -12z"/>
<path d="M2060 2100 c8 -5 20 -10 25 -10 6 0 3 5 -5 10 -8 5 -19 10 -25 10 -5
0 -3 -5 5 -10z"/>
<path d="M2717 2089 c7 -9 10 -19 6 -23 -4 -4 1 -4 10 0 10 3 17 7 15 8 -2 1
-12 8 -23 16 -18 14 -19 13 -8 -1z"/>
<path d="M1431 2053 c-17 -20 -31 -41 -31 -46 0 -6 9 0 20 13 11 13 20 27 20
32 0 4 7 8 15 8 8 0 15 7 15 15 0 21 -4 19 -39 -22z"/>
<path d="M1953 2055 c-14 -11 -14 -12 1 -12 9 0 16 5 16 10 0 14 15 -2 15 -16
1 -7 -4 -16 -10 -20 -6 -5 -4 -7 5 -5 18 6 22 55 3 55 -8 0 -21 -6 -30 -12z"/>
<path d="M2760 2060 c0 -5 5 -10 11 -10 5 0 7 5 4 10 -3 6 -8 10 -11 10 -2 0
-4 -4 -4 -10z"/>
<path d="M3303 2050 c9 -14 22 -35 27 -47 5 -13 15 -23 22 -23 9 0 10 3 2 8
-6 4 -14 17 -18 28 -4 12 -16 30 -28 40 l-22 19 17 -25z"/>
<path d="M3105 2051 c-3 -5 -1 -12 5 -16 5 -3 10 1 10 9 0 18 -6 21 -15 7z"/>
<path d="M2797 2038 c7 -8 10 -18 6 -22 -4 -4 0 -4 10 0 10 4 19 0 23 -9 3 -8
19 -21 35 -27 16 -7 29 -16 29 -20 0 -4 8 -11 18 -14 9 -3 4 5 -13 19 -16 13
-37 30 -45 37 -31 26 -75 52 -63 36z"/>
<path d="M1900 2020 c-14 -11 -20 -20 -14 -20 6 0 17 7 24 15 7 8 17 12 23 8
6 -3 7 -1 3 5 -9 15 -6 15 -36 -8z"/>
<path d="M1545 1999 c-4 -6 -5 -12 -2 -15 2 -3 7 2 10 11 7 17 1 20 -8 4z"/>
<path d="M2268 2003 c7 -3 16 -2 19 1 4 3 -2 6 -13 5 -11 0 -14 -3 -6 -6z"/>
<path d="M2358 2003 c23 -2 61 -2 85 0 23 2 4 4 -43 4 -47 0 -66 -2 -42 -4z"/>
<path d="M3148 1995 c6 -11 23 -33 37 -50 l27 -30 -22 32 c-12 18 -18 39 -14
45 4 7 4 10 -1 6 -4 -4 -15 -2 -23 5 -13 10 -14 9 -4 -8z"/>
<path d="M2194 1988 c8 -4 25 -4 38 1 20 8 18 9 -15 8 -24 -1 -32 -4 -23 -9z"/>
<path d="M2535 1985 c50 -18 57 -18 25 0 -14 8 -34 14 -45 14 -11 0 -2 -6 20
-14z"/>
<path d="M1366 1957 c-11 -17 -18 -38 -17 -46 1 -7 -2 -10 -8 -6 -6 3 -11 2
-11 -4 0 -5 5 -13 10 -16 9 -6 11 -2 14 32 1 6 10 20 20 32 10 11 16 25 15 30
-2 6 -13 -4 -23 -22z"/>
<path d="M1885 1980 c-3 -5 -2 -10 4 -10 5 0 13 5 16 10 3 6 2 10 -4 10 -5 0
-13 -4 -16 -10z"/>
<path d="M2156 1982 c-3 -5 1 -9 9 -9 8 0 12 4 9 9 -3 4 -7 8 -9 8 -2 0 -6 -4
-9 -8z"/>
<path d="M1814 1948 l-29 -31 33 22 c17 12 32 27 32 32 0 14 -4 11 -36 -23z"/>
<path d="M2601 1971 c-11 -7 -10 -10 5 -15 11 -3 24 -6 29 -7 6 0 16 -5 23
-11 8 -7 12 -7 12 0 0 15 -32 31 -49 24 -8 -3 -11 0 -7 7 9 13 6 14 -13 2z"/>
<path d="M1904 1956 c-9 -10 -7 -16 10 -26 16 -9 18 -9 9 0 -6 7 -9 19 -6 26
6 17 2 17 -13 0z"/>
<path d="M3353 1963 c12 -3 16 -10 12 -21 -3 -9 -3 -13 1 -9 4 4 14 1 22 -6
11 -9 11 -4 -2 16 -10 15 -26 26 -35 26 -13 -1 -12 -2 2 -6z"/>
<path d="M1811 1913 c-7 -8 -11 -16 -8 -19 2 -2 10 2 17 11 17 20 9 27 -9 8z"/>
<path d="M2696 1915 c10 -8 23 -15 28 -15 6 0 1 7 -10 15 -10 8 -23 15 -28 15
-6 0 -1 -7 10 -15z"/>
<path d="M2930 1920 c0 -5 4 -10 9 -10 17 0 69 -63 64 -77 -3 -7 0 -13 6 -13
17 0 13 18 -11 51 -25 33 -68 65 -68 49z"/>
<path d="M3245 1919 c-11 -16 -1 -19 13 -3 7 8 8 14 3 14 -5 0 -13 -5 -16 -11z"/>
<path d="M1965 1910 c-3 -5 -2 -10 4 -10 5 0 13 5 16 10 3 6 2 10 -4 10 -5 0
-13 -4 -16 -10z"/>
<path d="M1505 1890 c-10 -11 -16 -22 -13 -25 3 -3 13 6 22 20 20 30 16 32 -9
5z"/>
<path d="M1761 1888 c-14 -23 -14 -23 8 -4 22 20 25 26 13 26 -4 0 -13 -10
-21 -22z"/>
<path d="M3255 1890 c-3 -5 -1 -10 4 -10 6 0 11 5 11 10 0 6 -2 10 -4 10 -3 0
-8 -4 -11 -10z"/>
<path d="M1807 1867 c-3 -7 3 -13 13 -13 10 0 16 6 13 13 -3 7 -9 13 -13 13
-4 0 -10 -6 -13 -13z"/>
<path d="M3240 1860 c6 -11 13 -20 16 -20 2 0 0 9 -6 20 -6 11 -13 20 -16 20
-2 0 0 -9 6 -20z"/>
<path d="M3406 1863 c-6 -14 -5 -15 5 -6 7 7 10 15 7 18 -3 3 -9 -2 -12 -12z"/>
<path d="M1310 1850 c-9 -6 -10 -10 -3 -10 6 0 15 5 18 10 8 12 4 12 -15 0z"/>
<path d="M1681 1778 c-28 -45 -51 -91 -50 -103 0 -13 2 -15 6 -5 15 46 87 168
108 182 6 5 6 8 -2 8 -7 0 -35 -37 -62 -82z"/>
<path d="M1934 1846 c-10 -8 -17 -16 -14 -19 3 -2 14 4 24 14 23 22 18 25 -10
5z"/>
<path d="M2780 1857 c0 -2 6 -10 14 -16 11 -9 16 -9 22 1 4 7 4 10 -1 6 -4 -4
-14 -3 -22 3 -7 6 -13 9 -13 6z"/>
<path d="M2830 1834 c-11 -12 -10 -18 5 -32 18 -16 18 -16 6 1 -11 14 -11 20
-1 32 7 8 10 15 7 15 -2 0 -10 -7 -17 -16z"/>
<path d="M1291 1823 c-1 -6 -4 -20 -7 -30 -5 -17 -5 -17 6 0 6 10 9 23 6 30
-3 9 -5 9 -5 0z"/>
<path d="M3260 1825 c0 -5 5 -17 10 -25 5 -8 10 -10 10 -5 0 6 -5 17 -10 25
-5 8 -10 11 -10 5z"/>
<path d="M1455 1789 c-9 -17 -15 -33 -13 -35 3 -2 12 12 21 31 21 43 13 47 -8
4z"/>
<path d="M1885 1800 c-3 -5 -1 -10 4 -10 6 0 11 5 11 10 0 6 -2 10 -4 10 -3 0
-8 -4 -11 -10z"/>
<path d="M2363 1803 c9 -2 23 -2 30 0 6 3 -1 5 -18 5 -16 0 -22 -2 -12 -5z"/>
<path d="M1720 1791 c0 -6 4 -13 10 -16 6 -3 7 1 4 9 -7 18 -14 21 -14 7z"/>
<path d="M2258 1793 c6 -2 18 -2 25 0 6 3 1 5 -13 5 -14 0 -19 -2 -12 -5z"/>
<path d="M2410 1790 c-11 -7 -5 -8 20 -4 43 8 51 14 19 14 -13 0 -31 -5 -39
-10z"/>
<path d="M2488 1783 c7 -3 16 -2 19 1 4 3 -2 6 -13 5 -11 0 -14 -3 -6 -6z"/>
<path d="M1863 1768 c-15 -20 -25 -38 -20 -38 3 0 12 11 21 25 17 26 16 35 -1
13z"/>
<path d="M2179 1759 l-24 -21 27 16 c15 9 35 13 45 10 15 -5 16 -4 3 5 -21 15
-24 14 -51 -10z"/>
<path d="M3058 1765 c5 -11 12 -27 15 -35 5 -13 6 -13 6 1 1 8 -6 24 -15 35
-15 19 -15 19 -6 -1z"/>
<path d="M3295 1759 c-4 -6 -5 -12 -2 -15 2 -3 7 2 10 11 7 17 1 20 -8 4z"/>
<path d="M2119 1729 c-23 -19 -23 -20 -2 -10 12 6 25 16 28 21 10 16 -1 12
-26 -11z"/>
<path d="M2596 1735 c12 -9 14 -14 6 -15 -7 0 -10 -5 -6 -11 4 -8 9 -7 15 2 9
14 -7 39 -24 39 -6 0 -2 -7 9 -15z"/>
<path d="M2896 1737 c3 -10 9 -15 12 -12 3 3 0 11 -7 18 -10 9 -11 8 -5 -6z"/>
<path d="M1266 1727 c3 -10 9 -15 12 -12 3 3 0 11 -7 18 -10 9 -11 8 -5 -6z"/>
<path d="M1421 1722 c-17 -31 -13 -40 5 -14 9 13 14 26 11 29 -3 2 -10 -4 -16
-15z"/>
<path d="M3341 1724 c0 -11 3 -14 6 -6 3 7 2 16 -1 19 -3 4 -6 -2 -5 -13z"/>
<path d="M2145 1721 c-3 -5 -2 -12 3 -15 5 -3 9 1 9 9 0 17 -3 19 -12 6z"/>
<path d="M3300 1724 c0 -5 6 -18 13 -29 12 -15 15 -16 22 -4 5 8 4 10 0 6 -5
-4 -15 3 -22 15 -7 13 -12 18 -13 12z"/>
<path d="M1810 1696 c-15 -39 -12 -46 6 -13 9 16 13 31 10 34 -3 3 -10 -6 -16
-21z"/>
<path d="M2659 1687 c19 -21 36 -37 38 -37 9 0 -23 38 -45 54 -21 15 -20 12 7
-17z"/>
<path d="M3093 1696 c0 -14 6 -31 13 -37 10 -8 14 -8 14 0 0 6 -5 11 -11 11
-6 0 -9 6 -6 13 3 8 2 20 -3 26 -5 9 -7 4 -7 -13z"/>
<path d="M2070 1695 c-11 -13 -10 -14 4 -9 9 3 16 10 16 15 0 13 -6 11 -20 -6z"/>
<path d="M2921 1700 c0 -8 3 -21 8 -28 7 -11 9 -10 14 3 4 9 3 13 -2 10 -5 -3
-12 3 -14 12 -3 13 -5 14 -6 3z"/>
<path d="M1391 1674 c0 -11 3 -14 6 -6 3 7 2 16 -1 19 -3 4 -6 -2 -5 -13z"/>
<path d="M2032 1649 c-19 -30 -8 -34 12 -4 9 14 13 25 9 25 -5 0 -14 -9 -21
-21z"/>
<path d="M3491 1654 c0 -11 3 -14 6 -6 3 7 2 16 -1 19 -3 4 -6 -2 -5 -13z"/>
<path d="M2302 1646 c-29 -7 -56 -17 -60 -21 -4 -4 4 -5 18 0 14 4 63 10 110
15 47 4 75 8 64 8 -12 1 -34 4 -50 7 -16 2 -53 -2 -82 -9z"/>
<path d="M3335 1650 c-3 -5 -1 -10 4 -10 6 0 11 5 11 10 0 6 -2 10 -4 10 -3 0
-8 -4 -11 -10z"/>
<path d="M2710 1641 c0 -6 4 -13 10 -16 6 -3 7 1 4 9 -7 18 -14 21 -14 7z"/>
<path d="M1606 1623 c-6 -14 -5 -15 5 -6 7 7 10 15 7 18 -3 3 -9 -2 -12 -12z"/>
<path d="M1230 1621 c0 -6 4 -13 10 -16 6 -3 7 1 4 9 -7 18 -14 21 -14 7z"/>
<path d="M3500 1621 c0 -7 -4 -9 -10 -6 -6 4 -7 -1 -3 -11 6 -15 7 -15 15 1 6
9 7 19 4 22 -3 4 -6 1 -6 -6z"/>
<path d="M3125 1609 c-4 -6 -5 -12 -2 -15 2 -3 7 2 10 11 7 17 1 20 -8 4z"/>
<path d="M2500 1606 c0 -2 7 -7 16 -10 8 -3 12 -2 9 4 -6 10 -25 14 -25 6z"/>
<path d="M2607 1593 c3 -7 9 -13 13 -13 4 0 10 6 13 13 3 7 -3 13 -13 13 -10
0 -16 -6 -13 -13z"/>
<path d="M2731 1600 c-1 -18 10 -34 26 -37 7 -2 10 4 7 12 -4 8 -10 13 -14 10
-5 -3 -11 3 -13 12 -3 13 -5 14 -6 3z"/>
<path d="M2179 1581 c-13 -11 -22 -21 -19 -23 3 -2 16 6 29 19 29 28 22 30
-10 4z"/>
<path d="M1967 1555 c-9 -19 -15 -35 -12 -35 7 0 37 61 33 66 -3 2 -12 -12
-21 -31z"/>
<path d="M2558 1570 c12 -11 24 -20 27 -20 3 0 0 9 -7 20 -7 11 -19 20 -27 20
-11 0 -9 -6 7 -20z"/>
<path d="M1591 1564 c0 -11 3 -14 6 -6 3 7 2 16 -1 19 -3 4 -6 -2 -5 -13z"/>
<path d="M2991 1573 c-1 -6 -4 -20 -7 -30 -5 -17 -5 -17 6 0 6 10 9 23 6 30
-3 9 -5 9 -5 0z"/>
<path d="M3136 1565 c-9 -26 -7 -32 5 -12 6 10 9 21 6 23 -2 3 -7 -2 -11 -11z"/>
<path d="M3511 1564 c0 -11 3 -14 6 -6 3 7 2 16 -1 19 -3 4 -6 -2 -5 -13z"/>
<path d="M2600 1560 c0 -5 5 -10 11 -10 5 0 7 5 4 10 -3 6 -8 10 -11 10 -2 0
-4 -4 -4 -10z"/>
<path d="M1375 1530 c-4 -17 -5 -34 -2 -36 2 -3 7 10 11 27 3 18 4 34 2 36 -2
3 -7 -10 -11 -27z"/>
<path d="M3146 1514 c-4 -20 -5 -38 -3 -40 3 -3 8 11 11 32 4 20 5 38 3 40 -3
3 -8 -11 -11 -32z"/>
<path d="M2590 1534 c0 -5 7 -18 15 -28 8 -11 15 -16 15 -10 0 5 -7 18 -15 28
-8 11 -15 16 -15 10z"/>
<path d="M1211 1493 c1 -34 2 -35 9 -13 11 36 11 50 0 50 -5 0 -10 -17 -9 -37z"/>
<path d="M1741 1514 c0 -11 3 -14 6 -6 3 7 2 16 -1 19 -3 4 -6 -2 -5 -13z"/>
<path d="M2991 1513 c0 -4 4 -17 9 -28 8 -19 9 -19 9 2 1 12 -3 25 -9 28 -5 3
-10 3 -9 -2z"/>
<path d="M1691 1494 c0 -11 3 -14 6 -6 3 7 2 16 -1 19 -3 4 -6 -2 -5 -13z"/>
<path d="M1970 1505 c0 -5 5 -17 10 -25 5 -8 10 -10 10 -5 0 6 -5 17 -10 25
-5 8 -10 11 -10 5z"/>
<path d="M3162 1475 c0 -16 2 -22 5 -12 2 9 2 23 0 30 -3 6 -5 -1 -5 -18z"/>
<path d="M2797 1440 c3 -30 7 -57 9 -59 8 -9 2 75 -6 94 -6 13 -7 1 -3 -35z"/>
<path d="M1261 1464 c0 -11 3 -14 6 -6 3 7 2 16 -1 19 -3 4 -6 -2 -5 -13z"/>
<path d="M1712 1460 c0 -14 2 -19 5 -12 2 6 2 18 0 25 -3 6 -5 1 -5 -13z"/>
<path d="M1731 1464 c0 -11 3 -14 6 -6 3 7 2 16 -1 19 -3 4 -6 -2 -5 -13z"/>
<path d="M2625 1472 c4 -8 11 -26 15 -40 7 -22 8 -23 9 -6 1 11 -6 29 -15 40
-8 10 -12 13 -9 6z"/>
<path d="M1931 1430 c0 -33 1 -34 10 -11 6 16 6 28 -1 35 -7 7 -10 -1 -9 -24z"/>
<path d="M2087 1443 c3 -7 6 -13 8 -13 2 0 5 6 8 13 3 8 -1 14 -8 14 -7 0 -11
-6 -8 -14z"/>
<path d="M3000 1441 c0 -6 5 -13 10 -16 6 -3 10 1 10 9 0 9 -4 16 -10 16 -5 0
-10 -4 -10 -9z"/>
<path d="M3370 1412 c0 -22 5 -44 10 -47 7 -4 8 8 4 37 -9 57 -14 61 -14 10z"/>
<path d="M1363 1365 c0 -44 2 -61 4 -37 2 23 2 59 0 80 -2 20 -4 1 -4 -43z"/>
<path d="M1572 1400 c0 -19 2 -27 5 -17 2 9 2 25 0 35 -3 9 -5 1 -5 -18z"/>
<path d="M3533 1375 c0 -22 2 -30 4 -17 2 12 2 30 0 40 -3 9 -5 -1 -4 -23z"/>
<path d="M1203 1365 c0 -22 2 -30 4 -17 2 12 2 30 0 40 -3 9 -5 -1 -4 -23z"/>
<path d="M2081 1384 c0 -11 3 -14 6 -6 3 7 2 16 -1 19 -3 4 -6 -2 -5 -13z"/>
<path d="M2661 1354 c0 -11 3 -14 6 -6 3 7 2 16 -1 19 -3 4 -6 -2 -5 -13z"/>
<path d="M1572 1335 c0 -16 2 -22 5 -12 2 9 2 23 0 30 -3 6 -5 -1 -5 -18z"/>
<path d="M1935 1306 c2 -32 9 -64 14 -69 8 -8 11 -6 11 5 0 9 -5 20 -10 23 -6
4 -8 14 -6 23 3 10 2 31 -3 47 -7 24 -9 18 -6 -29z"/>
<path d="M2082 1330 c0 -14 2 -19 5 -12 2 6 2 18 0 25 -3 6 -5 1 -5 -13z"/>
<path d="M2802 1320 c0 -14 2 -19 5 -12 2 6 2 18 0 25 -3 6 -5 1 -5 -13z"/>
<path d="M3011 1294 c0 -11 3 -14 6 -6 3 7 2 16 -1 19 -3 4 -6 -2 -5 -13z"/>
<path d="M2084 1289 c-3 -6 -1 -16 4 -21 8 -8 11 -5 9 11 -1 24 -3 25 -13 10z"/>
<path d="M1212 1270 c0 -14 2 -19 5 -12 2 6 2 18 0 25 -3 6 -5 1 -5 -13z"/>
<path d="M1570 1274 c0 -10 5 -26 10 -34 8 -11 9 -7 4 15 -8 37 -14 45 -14 19z"/>
<path d="M1734 1248 c3 -20 0 -38 -5 -40 -6 -2 -1 -12 10 -22 12 -11 21 -14
21 -8 0 7 -5 12 -11 12 -6 0 -9 6 -6 13 3 8 1 29 -4 48 l-9 34 4 -37z"/>
<path d="M3001 1258 c0 -9 -4 -25 -7 -35 -5 -17 -5 -17 6 0 6 10 9 25 7 35 -4
15 -5 15 -6 0z"/>
<path d="M3021 1254 c0 -11 3 -14 6 -6 3 7 2 16 -1 19 -3 4 -6 -2 -5 -13z"/>
<path d="M3152 1240 c0 -14 2 -19 5 -12 2 6 2 18 0 25 -3 6 -5 1 -5 -13z"/>
<path d="M2110 1244 c0 -18 40 -74 52 -74 8 1 6 6 -4 14 -10 7 -18 17 -18 22
-1 12 -30 50 -30 38z"/>
<path d="M2774 1228 c-5 -13 -7 -27 -6 -31 2 -5 -15 -35 -37 -68 -22 -32 -36
-59 -33 -59 11 0 85 120 78 127 -3 4 1 17 9 30 9 13 11 23 6 23 -5 0 -13 -10
-17 -22z"/>
<path d="M3522 1225 c0 -16 2 -22 5 -12 2 9 2 23 0 30 -3 6 -5 -1 -5 -18z"/>
<path d="M2606 1224 c-8 -22 -4 -25 11 -9 7 8 9 16 4 19 -5 3 -12 -1 -15 -10z"/>
<path d="M3361 1224 c0 -11 3 -14 6 -6 3 7 2 16 -1 19 -3 4 -6 -2 -5 -13z"/>
<path d="M1965 1179 c9 -17 18 -29 21 -27 6 6 -20 58 -29 58 -4 0 0 -14 8 -31z"/>
<path d="M2735 1200 c-3 -5 -1 -10 4 -10 6 0 11 5 11 10 0 6 -2 10 -4 10 -3 0
-8 -4 -11 -10z"/>
<path d="M1376 1175 c-3 -8 -1 -15 4 -15 6 0 10 7 10 15 0 8 -2 15 -4 15 -2 0
-6 -7 -10 -15z"/>
<path d="M2580 1179 c0 -5 5 -7 10 -4 6 3 10 8 10 11 0 2 -4 4 -10 4 -5 0 -10
-5 -10 -11z"/>
<path d="M3351 1174 c0 -11 3 -14 6 -6 3 7 2 16 -1 19 -3 4 -6 -2 -5 -13z"/>
<path d="M1220 1161 c0 -25 6 -27 13 -6 4 8 2 17 -3 20 -6 4 -10 -3 -10 -14z"/>
<path d="M2546 1151 c-10 -11 -39 -30 -64 -41 -40 -19 -59 -22 -131 -18 -47 3
-76 1 -65 -3 39 -16 157 -9 199 11 44 21 91 58 83 65 -3 3 -13 -4 -22 -14z"/>
<path d="M2971 1144 c0 -11 3 -14 6 -6 3 7 2 16 -1 19 -3 4 -6 -2 -5 -13z"/>
<path d="M1380 1134 c0 -8 5 -12 10 -9 6 4 8 11 5 16 -9 14 -15 11 -15 -7z"/>
<path d="M3347 1143 c-4 -3 -7 -13 -7 -22 1 -13 3 -13 11 2 11 19 8 33 -4 20z"/>
<path d="M2693 1118 c-15 -20 -25 -38 -20 -38 3 0 12 11 21 25 17 26 16 35 -1
13z"/>
<path d="M3126 1115 c-3 -9 -6 -22 -5 -28 0 -7 5 -1 10 12 5 13 8 26 5 28 -2
2 -6 -3 -10 -12z"/>
<path d="M2240 1110 c0 -5 5 -10 11 -10 5 0 7 5 4 10 -3 6 -8 10 -11 10 -2 0
-4 -4 -4 -10z"/>
<path d="M1660 1105 c0 -5 5 -17 10 -25 5 -8 10 -10 10 -5 0 6 -5 17 -10 25
-5 8 -10 11 -10 5z"/>
<path d="M1776 1093 c-6 -14 -5 -15 5 -6 7 7 10 15 7 18 -3 3 -9 -2 -12 -12z"/>
<path d="M2937 1072 c-12 -27 -14 -39 -5 -47 8 -7 9 -7 5 1 -4 6 0 26 9 43 9
18 14 34 12 36 -2 3 -12 -12 -21 -33z"/>
<path d="M3496 1095 c-3 -9 -6 -24 -5 -33 0 -9 5 -4 10 12 9 32 6 48 -5 21z"/>
<path d="M1241 1084 c0 -11 3 -14 6 -6 3 7 2 16 -1 19 -3 4 -6 -2 -5 -13z"/>
<path d="M2020 1096 c0 -2 8 -10 18 -17 15 -13 16 -12 3 4 -13 16 -21 21 -21
13z"/>
<path d="M1620 1055 c0 -8 29 -12 39 -5 9 5 4 8 -13 8 -14 0 -26 -2 -26 -3z"/>
<path d="M2670 1049 c0 -6 -7 -8 -17 -5 -10 4 -14 4 -10 0 4 -4 1 -14 -6 -23
-6 -8 3 -5 21 8 33 23 39 31 22 31 -5 0 -10 -5 -10 -11z"/>
<path d="M3065 1040 c-3 -5 0 -19 8 -30 13 -19 15 -19 21 -4 4 9 4 19 1 22 -3
3 -5 0 -5 -7 0 -7 -5 -9 -11 -6 -6 4 -8 13 -5 21 6 16 0 19 -9 4z"/>
<path d="M1256 1020 c9 -38 44 -114 49 -108 4 4 -5 28 -43 108 l-12 25 6 -25z"/>
<path d="M1810 1034 c0 -5 13 -23 28 -39 30 -34 27 -25 -6 19 -12 16 -22 25
-22 20z"/>
<path d="M1426 1005 c4 -16 11 -34 16 -40 7 -7 8 -1 3 15 -12 40 -26 59 -19
25z"/>
<path d="M1640 1025 c0 -5 5 -17 10 -25 5 -8 10 -10 10 -5 0 6 -5 17 -10 25
-5 8 -10 11 -10 5z"/>
<path d="M2106 1021 c-6 -8 5 -20 31 -35 6 -3 15 -2 18 4 4 6 3 10 -2 9 -4 -1
-16 1 -26 6 -15 6 -16 10 -5 16 9 6 9 9 1 9 -6 0 -14 -4 -17 -9z"/>
<path d="M3471 1014 c0 -11 3 -14 6 -6 3 7 2 16 -1 19 -3 4 -6 -2 -5 -13z"/>
<path d="M2604 1012 c3 -5 0 -13 -6 -15 -9 -4 -10 -6 -1 -6 17 -1 25 16 12 25
-7 4 -9 3 -5 -4z"/>
<path d="M2886 983 l-17 -28 19 22 c11 12 22 19 26 16 3 -4 6 -1 6 5 0 21 -17
13 -34 -15z"/>
<path d="M1667 987 c-3 -8 5 -27 19 -43 13 -16 23 -24 24 -18 0 6 -9 19 -19
28 -11 10 -17 24 -14 32 3 8 3 14 0 14 -3 0 -7 -6 -10 -13z"/>
<path d="M3056 983 c-6 -14 -5 -15 5 -6 7 7 10 15 7 18 -3 3 -9 -2 -12 -12z"/>
<path d="M3461 974 c0 -11 3 -14 6 -6 3 7 2 16 -1 19 -3 4 -6 -2 -5 -13z"/>
<path d="M2195 959 c7 -11 44 -18 50 -9 3 4 -8 10 -25 12 -16 2 -27 1 -25 -3z"/>
<path d="M2520 960 c-18 -12 -2 -12 25 0 13 6 15 9 5 9 -8 0 -22 -4 -30 -9z"/>
<path d="M2398 953 c7 -3 16 -2 19 1 4 3 -2 6 -13 5 -11 0 -14 -3 -6 -6z"/>
<path d="M3035 932 c-11 -15 -33 -45 -48 -67 l-28 -40 31 35 c17 19 34 40 38
45 4 6 13 18 21 28 8 10 12 19 10 21 -2 2 -13 -8 -24 -22z"/>
<path d="M1457 933 c8 -23 33 -60 33 -50 0 11 -29 67 -35 67 -2 0 -2 -8 2 -17z"/>
<path d="M1850 943 c0 -6 8 -17 18 -24 16 -13 16 -13 2 6 -8 11 -16 22 -17 24
-2 2 -3 0 -3 -6z"/>
<path d="M1880 944 c0 -6 11 -21 25 -34 13 -12 22 -27 19 -31 -3 -5 3 -6 12
-2 15 6 14 9 -7 25 -13 11 -30 27 -36 36 -7 9 -13 11 -13 6z"/>
<path d="M2308 943 c6 -2 9 -10 6 -15 -4 -7 -2 -8 5 -4 13 9 5 26 -12 25 -9 0
-8 -2 1 -6z"/>
<path d="M2811 906 c-27 -28 -39 -46 -32 -50 6 -4 8 -12 5 -18 -4 -7 -2 -8 5
-4 8 6 9 12 2 20 -8 9 -4 19 14 36 14 13 25 20 25 16 0 -4 7 0 16 8 8 9 20 14
25 11 5 -4 6 1 3 9 -9 23 -14 20 -63 -28z"/>
<path d="M3446 933 c-6 -14 -5 -15 5 -6 7 7 10 15 7 18 -3 3 -9 -2 -12 -12z"/>
<path d="M2268 933 c7 -3 16 -2 19 1 4 3 -2 6 -13 5 -11 0 -14 -3 -6 -6z"/>
<path d="M2400 929 c0 -5 5 -7 10 -4 6 3 10 8 10 11 0 2 -4 4 -10 4 -5 0 -10
-5 -10 -11z"/>
<path d="M2438 933 c6 -2 18 -2 25 0 6 3 1 5 -13 5 -14 0 -19 -2 -12 -5z"/>
<path d="M2348 923 c6 -2 18 -2 25 0 6 3 1 5 -13 5 -14 0 -19 -2 -12 -5z"/>
<path d="M3256 904 c-3 -9 -4 -19 -1 -22 3 -3 5 1 5 9 0 11 2 11 10 -1 5 -8
10 -10 10 -5 0 6 -4 16 -9 23 -6 11 -10 10 -15 -4z"/>
<path d="M1720 894 c0 -6 26 -39 59 -73 46 -50 60 -59 65 -46 8 23 7 33 -2 17
-7 -10 -13 -8 -30 6 -12 11 -22 23 -22 28 0 5 -9 15 -21 22 -12 8 -18 19 -15
28 4 9 2 12 -5 8 -6 -4 -15 0 -20 7 -5 8 -9 9 -9 3z"/>
<path d="M1315 860 c9 -16 18 -30 21 -30 2 0 -2 14 -11 30 -9 17 -18 30 -21
30 -2 0 2 -13 11 -30z"/>
<path d="M2965 879 c-4 -6 -5 -12 -2 -15 2 -3 7 2 10 11 7 17 1 20 -8 4z"/>
<path d="M3413 863 c-3 -10 -8 -22 -10 -28 -3 -5 3 -1 11 9 16 20 21 36 11 36
-3 0 -8 -8 -12 -17z"/>
<path d="M1511 835 c12 -19 23 -35 25 -35 2 0 -4 16 -13 35 -9 19 -20 35 -25
35 -4 0 2 -16 13 -35z"/>
<path d="M1950 866 c0 -2 7 -7 16 -10 8 -3 12 -2 9 4 -6 10 -25 14 -25 6z"/>
<path d="M1470 856 c0 -2 8 -10 18 -17 15 -13 16 -12 3 4 -13 16 -21 21 -21
13z"/>
<path d="M2747 853 c-11 -10 -8 -20 7 -26 8 -3 13 0 12 8 -3 19 -11 27 -19 18z"/>
<path d="M1982 833 c-7 -7 -9 -13 -5 -14 4 0 21 -2 37 -3 16 -1 31 -7 34 -14
6 -20 40 -34 48 -20 4 6 3 8 -3 5 -6 -4 -16 0 -23 8 -6 7 -26 22 -44 33 -26
16 -34 17 -44 5z"/>
<path d="M3227 834 c4 -11 3 -15 -5 -10 -6 3 -13 2 -16 -3 -4 -5 2 -8 11 -7
20 3 28 21 14 31 -7 4 -8 0 -4 -11z"/>
<path d="M1347 825 c-4 -8 -3 -16 1 -19 4 -3 9 4 9 15 2 23 -3 25 -10 4z"/>
<path d="M2696 815 c-11 -8 -15 -15 -10 -15 6 0 19 7 30 15 10 8 15 14 9 14
-5 0 -19 -6 -29 -14z"/>
<path d="M1406 797 c3 -10 9 -15 12 -12 3 3 0 11 -7 18 -10 9 -11 8 -5 -6z"/>
<path d="M2905 778 c-21 -21 -24 -27 -9 -20 22 12 49 40 43 46 -2 2 -17 -10
-34 -26z"/>
<path d="M3374 785 c-9 -14 -15 -27 -13 -30 3 -2 12 10 21 26 21 36 15 39 -8
4z"/>
<path d="M3174 771 c-10 -17 -22 -31 -26 -31 -4 0 -8 -7 -8 -15 0 -8 -4 -15
-10 -15 -5 0 -14 -9 -20 -20 -6 -11 -9 -20 -7 -20 8 0 62 54 60 59 -1 3 6 5
15 3 14 -2 15 -1 2 7 -12 8 -12 13 5 30 10 12 16 24 13 27 -4 3 -14 -8 -24
-25z"/>
<path d="M1360 784 c0 -13 18 -39 24 -34 2 3 -2 14 -10 24 -8 11 -14 16 -14
10z"/>
<path d="M1380 786 c0 -2 8 -10 18 -17 15 -13 16 -12 3 4 -13 16 -21 21 -21
13z"/>
<path d="M1550 784 c0 -5 5 -15 12 -22 6 -6 8 -15 4 -19 -4 -4 -11 -2 -15 6
-7 10 -9 10 -14 -1 -3 -9 2 -14 14 -15 27 -2 33 13 15 39 -9 12 -16 18 -16 12z"/>
<path d="M2648 783 c7 -3 16 -2 19 1 4 3 -2 6 -13 5 -11 0 -14 -3 -6 -6z"/>
<path d="M2595 770 c-11 -5 -17 -9 -13 -9 3 -1 14 -4 24 -8 13 -5 15 -3 9 7
-6 10 -4 12 9 7 10 -4 15 -3 11 3 -7 12 -13 12 -40 0z"/>
<path d="M2145 760 c-3 -5 1 -10 10 -10 9 0 13 5 10 10 -3 6 -8 10 -10 10 -2
0 -7 -4 -10 -10z"/>
<path d="M1855 750 c3 -5 20 -19 38 -31 l32 -22 -29 31 c-28 30 -55 44 -41 22z"/>
<path d="M2545 750 c-16 -7 -17 -9 -3 -9 9 -1 20 4 23 9 7 11 7 11 -20 0z"/>
<path d="M2188 743 c7 -3 16 -2 19 1 4 3 -2 6 -13 5 -11 0 -14 -3 -6 -6z"/>
<path d="M1411 710 c29 -45 29 -45 29 -34 0 5 -12 23 -26 39 l-26 30 23 -35z"/>
<path d="M2228 733 c6 -2 18 -2 25 0 6 3 1 5 -13 5 -14 0 -19 -2 -12 -5z"/>
<path d="M2488 733 c7 -3 16 -2 19 1 4 3 -2 6 -13 5 -11 0 -14 -3 -6 -6z"/>
<path d="M2358 723 c23 -2 59 -2 80 0 20 2 1 4 -43 4 -44 0 -61 -2 -37 -4z"/>
<path d="M2835 720 c3 -5 8 -10 11 -10 2 0 4 5 4 10 0 6 -5 10 -11 10 -5 0 -7
-4 -4 -10z"/>
<path d="M3316 698 l-17 -33 20 24 c18 20 27 41 18 41 -1 0 -11 -15 -21 -32z"/>
<path d="M1600 714 c0 -4 8 -12 17 -19 15 -11 15 -15 3 -31 -12 -16 -12 -17 0
-6 18 15 34 16 24 0 -5 -7 -3 -8 5 -3 9 5 5 15 -15 36 -29 30 -34 34 -34 23z"/>
<path d="M1947 706 c-16 -13 -15 -15 10 -31 28 -18 28 -18 11 2 -14 15 -15 22
-6 31 16 16 7 15 -15 -2z"/>
<path d="M2800 710 c8 -5 20 -10 25 -10 6 0 3 5 -5 10 -8 5 -19 10 -25 10 -5
0 -3 -5 5 -10z"/>
<path d="M2766 681 c-11 -4 -15 -10 -10 -13 5 -4 18 0 29 8 20 15 12 17 -19 5z"/>
<path d="M2725 650 c-3 -6 1 -7 9 -4 18 7 21 14 7 14 -6 0 -13 -4 -16 -10z"/>
<path d="M3044 625 l-39 -36 37 21 c20 12 39 27 42 35 8 22 2 19 -40 -20z"/>
<path d="M3279 643 c-13 -16 -12 -17 4 -4 16 13 21 21 13 21 -2 0 -10 -8 -17
-17z"/>
<path d="M2070 640 c0 -7 -9 -9 -22 -5 -42 12 4 -14 56 -31 30 -10 51 -13 55
-7 3 6 13 12 21 15 10 3 8 6 -7 10 -13 3 -21 2 -20 -4 1 -6 -4 -13 -12 -16 -8
-3 -11 0 -7 7 4 7 0 10 -11 9 -10 0 -27 0 -38 1 -15 1 -17 3 -6 10 9 6 10 11
2 15 -6 4 -11 2 -11 -4z"/>
<path d="M1680 631 c0 -10 19 -25 25 -20 1 2 -3 10 -11 17 -8 7 -14 8 -14 3z"/>
<path d="M2670 625 c-14 -8 -20 -14 -14 -15 5 0 19 7 30 15 24 18 16 19 -16 0z"/>
<path d="M1494 598 c16 -21 33 -38 39 -38 6 0 3 6 -8 13 -12 9 -15 19 -10 28
5 8 4 11 0 6 -5 -4 -17 1 -29 10 -12 12 -9 4 8 -19z"/>
<path d="M2570 620 c-18 -12 -2 -12 25 0 13 6 15 9 5 9 -8 0 -22 -4 -30 -9z"/>
<path d="M2593 605 c-17 -7 -35 -10 -39 -7 -4 4 -4 2 0 -5 7 -12 60 0 81 18
14 13 -5 10 -42 -6z"/>
<path d="M3239 603 c-13 -16 -12 -17 4 -4 16 13 21 21 13 21 -2 0 -10 -8 -17
-17z"/>
<path d="M1707 588 c-15 -12 -14 -13 10 -14 16 -1 22 1 15 3 -6 3 -10 9 -6 14
7 12 1 11 -19 -3z"/>
<path d="M2178 583 c7 -3 16 -2 19 1 4 3 -2 6 -13 5 -11 0 -14 -3 -6 -6z"/>
<path d="M2515 580 c4 -6 11 -8 16 -5 14 9 11 15 -7 15 -8 0 -12 -5 -9 -10z"/>
<path d="M3201 557 c-13 -21 -12 -21 5 -5 10 10 16 20 13 22 -3 3 -11 -5 -18
-17z"/>
<path d="M2348 563 c17 -2 47 -2 65 0 17 2 3 4 -33 4 -36 0 -50 -2 -32 -4z"/>
<path d="M1545 550 c-3 -5 -1 -10 4 -10 6 0 11 5 11 10 0 6 -2 10 -4 10 -3 0
-8 -4 -11 -10z"/>
<path d="M1796 531 c-3 -5 4 -11 16 -14 29 -8 32 -4 8 11 -10 6 -21 8 -24 3z"/>
<path d="M1579 506 c14 -15 26 -26 28 -26 9 0 -24 40 -37 45 -8 4 -4 -5 9 -19z"/>
<path d="M2889 508 l-24 -20 27 16 c15 9 33 13 41 10 8 -3 17 -2 20 3 11 17
-41 10 -64 -9z"/>
<path d="M3160 520 c-8 -5 -12 -12 -9 -15 4 -3 12 1 19 10 14 17 11 19 -10 5z"/>
<path d="M1874 486 c13 -12 31 -26 41 -29 9 -4 14 -11 10 -16 -3 -5 -2 -12 3
-15 4 -2 8 6 8 19 0 13 -3 22 -7 19 -4 -2 -21 7 -37 21 -38 32 -49 33 -18 1z"/>
<path d="M3120 485 c-11 -13 -10 -14 4 -9 9 3 16 10 16 15 0 13 -6 11 -20 -6z"/>
<path d="M3045 480 c-3 -6 1 -7 9 -4 18 7 21 14 7 14 -6 0 -13 -4 -16 -10z"/>
<path d="M1650 476 c0 -2 7 -7 16 -10 8 -3 12 -2 9 4 -6 10 -25 14 -25 6z"/>
<path d="M2800 460 c-11 -8 -7 -9 14 -4 22 5 27 4 21 -6 -5 -9 -4 -11 4 -6 13
9 5 26 -12 26 -7 0 -19 -5 -27 -10z"/>
<path d="M3071 449 c-13 -11 -22 -21 -20 -23 2 -3 15 4 28 15 13 11 22 21 20
23 -2 3 -15 -4 -28 -15z"/>
<path d="M1671 433 c77 -53 144 -95 158 -100 9 -2 3 3 -13 12 -22 13 -26 19
-15 26 10 7 7 8 -11 7 -15 -2 -24 2 -23 9 2 7 -4 10 -12 7 -8 -3 -24 5 -37 19
-13 13 -34 27 -48 31 l-25 8 26 -19z"/>
<path d="M1960 440 c-8 -5 -10 -10 -5 -11 39 -6 54 -5 49 2 -2 4 -12 5 -21 2
-11 -4 -14 -3 -9 5 9 14 6 15 -14 2z"/>
<path d="M2735 435 c-16 -8 -23 -14 -15 -14 8 0 26 6 40 14 32 18 15 18 -25 0z"/>
<path d="M2861 441 c-11 -7 -8 -14 15 -34 16 -14 31 -23 33 -21 3 2 -5 12 -18
20 -12 9 -20 22 -17 30 6 16 6 17 -13 5z"/>
<path d="M1822 401 c-11 -7 -11 -9 0 -14 9 -3 15 1 15 9 0 8 -1 14 -1 14 -1 0
-7 -4 -14 -9z"/>
<path d="M2080 401 c0 -10 50 -25 57 -18 2 3 -10 9 -26 15 -17 6 -31 7 -31 3z"/>
<path d="M3000 400 c-8 -5 -11 -12 -7 -16 4 -4 15 0 24 9 18 18 8 23 -17 7z"/>
<path d="M2157 376 c-4 -10 -1 -13 8 -9 8 3 12 9 9 14 -7 12 -11 11 -17 -5z"/>
<path d="M2588 383 c7 -3 16 -2 19 1 4 3 -2 6 -13 5 -11 0 -14 -3 -6 -6z"/>
<path d="M2548 373 c7 -3 16 -2 19 1 4 3 -2 6 -13 5 -11 0 -14 -3 -6 -6z"/>
<path d="M2946 365 c-11 -8 -15 -15 -9 -15 6 0 16 7 23 15 16 19 11 19 -14 0z"/>
<path d="M2211 366 c10 -8 89 -13 89 -5 0 5 -21 9 -47 9 -25 0 -44 -2 -42 -4z"/>
<path d="M2338 363 c12 -2 32 -2 45 0 12 2 2 4 -23 4 -25 0 -35 -2 -22 -4z"/>
<path d="M2450 364 c37 -8 88 -9 84 -2 -3 4 -26 7 -52 7 -26 -1 -40 -3 -32 -5z"/>
<path d="M2795 310 c-3 -5 -3 -10 2 -11 4 0 -12 -9 -37 -19 -25 -10 -39 -19
-32 -19 18 -1 78 25 86 37 3 6 2 13 -3 16 -5 4 -12 2 -16 -4z"/>
<path d="M1900 300 c8 -5 20 -10 25 -10 6 0 3 5 -5 10 -8 5 -19 10 -25 10 -5
0 -3 -5 5 -10z"/>
<path d="M2835 300 c-3 -6 1 -7 9 -4 18 7 21 14 7 14 -6 0 -13 -4 -16 -10z"/>
<path d="M2058 243 c7 -3 16 -2 19 1 4 3 -2 6 -13 5 -11 0 -14 -3 -6 -6z"/>
<path d="M2635 240 c-27 -7 -28 -8 -5 -8 14 0 34 3 45 8 25 11 2 11 -40 0z"/>
<path d="M2115 230 c11 -5 27 -9 35 -9 9 0 8 4 -5 9 -11 5 -27 9 -35 9 -9 0
-8 -4 5 -9z"/>
<path d="M2175 220 c3 -5 21 -10 38 -9 31 1 31 1 7 9 -36 11 -52 11 -45 0z"/>
<path d="M2310 215 c-7 -9 -8 -15 -2 -15 5 0 12 7 16 15 3 8 4 15 2 15 -2 0
-9 -7 -16 -15z"/>
<path d="M2520 220 c-12 -8 -10 -10 8 -10 13 0 20 4 17 10 -7 12 -6 12 -25 0z"/>
<path d="M2568 223 c6 -2 18 -2 25 0 6 3 1 5 -13 5 -14 0 -19 -2 -12 -5z"/>
<path d="M2258 213 c7 -3 16 -2 19 1 4 3 -2 6 -13 5 -11 0 -14 -3 -6 -6z"/>
<path d="M2358 203 c18 -2 45 -2 60 0 15 2 0 4 -33 4 -33 0 -45 -2 -27 -4z"/>
</g>
</svg>
